<?xml version="1.0" encoding="UTF-8" standalone="no"?>
<svg xmlns="http://www.w3.org/2000/svg" height="440" width="380" version="1.1" xmlns:xlink="http://www.w3.org/1999/xlink" viewBox="10 0 380 440" style="stroke-linejoin:round;stroke-linecap:round">
<defs>
<linearGradient id="a">
<stop style="stop-color:#fff" offset="0"/>
<stop style="stop-color:#61beff" offset="1"/>
</linearGradient>
<linearGradient id="b">
<stop style="stop-color:#ff573a;stop-opacity:.46653" offset="0"/>
<stop style="stop-color:#ff573a;stop-opacity:0" offset="1"/>
</linearGradient>
<filter id="j" color-interpolation-filters="sRGB">
<feGaussianBlur stdDeviation="0.47786537"/>
</filter>
<filter id="i" color-interpolation-filters="sRGB">
<feGaussianBlur stdDeviation="0.28291088"/>
</filter>
<filter id="h" color-interpolation-filters="sRGB">
<feGaussianBlur stdDeviation="0.25218324"/>
</filter>
<radialGradient id="m" xlink:href="#a" gradientUnits="userSpaceOnUse" cy="478.88" cx="497.09" gradientTransform="matrix(.18476 -.52072 1.1886 .56358 -270.22 304.16)" r="4.6044"/>
<radialGradient id="n" xlink:href="#a" gradientUnits="userSpaceOnUse" cy="478.88" cx="497.09" gradientTransform="matrix(-.28583 -.51692 1.1058 -.73144 -21.416 857.26)" r="4.6044"/>
<radialGradient id="o" xlink:href="#a" gradientUnits="userSpaceOnUse" cy="478.88" cx="497.09" gradientTransform="matrix(-.92399 -.38241 1.0091 -2.4382 338.08 1597.4)" r="4.6044"/>
<linearGradient id="k" x1="348.84" xlink:href="#b" gradientUnits="userSpaceOnUse" y1="464.51" gradientTransform="matrix(-.097453 .99472 .92762 .079019 -70.991 -63.055)" x2="363.74" y2="464.87"/>
<linearGradient id="l" x1="348.84" xlink:href="#b" gradientUnits="userSpaceOnUse" y1="464.51" gradientTransform="matrix(-.17968 .9832 -.91361 -.17896 748.01 52.505)" x2="363.74" y2="464.87"/>
</defs>
<path style="fill:#fbdaaf" d="m148.73 363.98c-1.25 22.992 14.297 69.102 14.297 69.102 2.9818 6.4715 16.393 5.676 16.735-1.9105l1.293-62.636z"/>
<path style="fill:#fbdaaf" d="m193.68 369.39 9.0914 64.344c2.9846 6.3544 13.514 4.5688 15.657 0.56942 4.275-5.4518 13.591-74.681 9.5964-72.885-3.4578 1.554-34.345 7.9718-34.345 7.9718z"/>
<path style="fill:#f5d1a3" d="m171.94 367.38c3.9842 44.095-1.6616 62.66-8.9175 65.709 2.9818 6.4715 16.393 5.676 16.735-1.9105l1.293-62.636z"/>
<path style="fill:#f5d1a3" d="m218.68 363.85c-1.8526 24.72 1.7798 64.032-15.909 69.88 2.9846 6.3544 13.514 4.5688 15.657 0.56942 4.275-5.4518 13.591-74.681 9.5964-72.885-3.4578 1.554-9.3452 2.4361-9.3452 2.4361z"/>
<path style="stroke:#000;stroke-width:1.5;fill:none" d="m148.73 363.98c-1.25 22.992 14.297 69.102 14.297 69.102 2.9818 6.4715 16.393 5.676 16.735-1.9105l1.293-62.636z"/>
<path style="stroke:#000;stroke-width:1.5;fill:none" d="m193.68 369.39 9.0914 64.344c2.9846 6.3544 13.514 4.5688 15.657 0.56942 4.275-5.4518 13.591-74.681 9.5964-72.885-3.4578 1.554-34.345 7.9718-34.345 7.9718z"/>
<path style="fill:#ef66ed" d="m147.97 330.71-23.36 19.698 8.5863 7.0711-3.6618 4.2932 12.122 6.3134s-2.9042 3.6618-1.7678 3.6618 14.521 5.4296 14.521 5.4296l-0.25254 2.1466 21.466 4.2932 23.486-0.37881 0.63134-1.1364 21.592-5.8084-0.63134-1.2627 14.647-5.9346-1.5152-1.7678 15.657-6.8185-4.9245-4.9245 6.4397-3.283-23.865-25.001-70.079 2.1466z"/>
<path style="fill:#cf15cc" d="m149.74 332.73-18.124 23.554 1.7805 0.73966 17.588-20.93z"/>
<path style="fill:#cf15cc" d="m154.74 338.29-15.614 28.659 2.8287 0.70639 17.055-26.942z"/>
<path style="fill:#cf15cc" d="m164.71 340.36-12.679 35.625s3.125 2.5 3.125 1.4286 15-36.786 15-36.786z"/>
<path style="fill:#cf15cc" d="m176.05 345.18-3.75 37.589s3.3036 1.5178 3.3036 0.98214c0-0.53571 6.6071-40.357 6.6071-40.357z"/>
<path style="fill:#cf15cc" d="m206.41 345.54 1.5444 3.6897 3.6342 29.257-11.964 3.3929-3.5714-35.536z"/>
<path style="fill:#cf15cc" d="m215.51 339.82 5.6407 8.4386 9.1807 22.365-9.7321 4.4643-15.446-32.589z"/>
<path style="fill:#cf15cc" d="m222.83 333.75 10.759 11.232 12.188 17.428-11.429 4.5536-20.714-29.732z"/>
<path style="fill:#cf15cc" d="m222.92 333.57 5.0893-4.1964 20.446 24.196-3.4821 2.2321z"/>
<path style="fill:#cf15cc" d="m188.12 343.21 6.3135 39.396 5.0508 1.0102-3.283-40.406z"/>
<path style="stroke:#000;stroke-width:1.5;fill:none" d="m156.49 338.21-6.6071-1.0714-20.536 24.643 12.679 6.4286m23.214-27.143c-0.71429-0.17857-5.7143-0.17857-5.7143-0.17857l-19.821 30.714 15 5.7143m19.286-33.214-4.7322-1.1607-15.089 36.161 21.25 4.6429m0.53571-39.464 5.8929 0.62499-6.25 39.196 23.929-0.53571-3.5714-39.821-4.1071 1.25m7.6786 37.143 21.964-5.5357-15.536-32.5-4.2857 0.53572m19.107 30.536c1.0714 0 14.464-6.25 14.464-6.25l-21.607-32.321-3.0357 3.5714m23.571 26.964 15.357-6.4286-28.571-29.464-1.6071 2.6786m25.179 21.786 6.6072-3.2143-25.536-26.071-77.419 3.8763-23.701 20.422 8.7986 6.773"/>
<path style="fill:#fbdaaf" d="m262.37 227.04c45.055-44.645 56.259-49.928 43.437-27.274 13.538 20.373 5.4612 24.405-17.083 32.959-23.541 8.9324-54.85 47.91-68.275 54.419l-33.84 22.728-22.223-26.264c-13.145-13.828-35.887-42.882-58.958-52.351-16.616-6.8191-32.67-18.984-18.824-29.472-20.938-34.816 48.566 23.237 70.829 30.058z"/>
<path style="fill:#f5d1a3" d="m213.62 283.47c47.555-32.145 79.116-75.821 92.187-83.703 13.538 20.373 5.4612 24.405-17.083 32.959-23.541 8.9324-54.85 47.91-68.275 54.419l-33.84 22.728-22.223-26.264c-13.145-13.828-35.887-42.882-58.958-52.351-16.616-6.8191-32.67-18.984-18.824-29.472 28.021 16.349 53.23 53.928 86.901 80.236l4.2462-8.2848s17.522 2.0212 23.731-2.9797c8.102-6.5258 2.6928-16.419 2.6928-16.419l8.6666-1.6847z"/>
<path style="stroke:#000;stroke-width:1.5;fill:none" d="m262.37 227.04c45.055-44.645 56.259-49.928 43.437-27.274 13.538 20.373 5.4612 24.405-17.083 32.959-23.541 8.9324-54.85 47.91-68.275 54.419l-33.84 22.728-22.223-26.264c-13.145-13.828-35.887-42.882-58.958-52.351-16.616-6.8191-32.67-18.984-18.824-29.472-20.938-34.816 48.566 23.237 70.829 30.058z"/>
<path style="fill:#3b66ff" d="m178.68 262.09c-0.0591-0.0657-27.001 51.697-30.855 70.094-1.9943 9.5208 38.004 21.549 59.383 12.998 9.7076-5.4762 14.413-10.952 21.429-16.429-7.2026-16.28-5.4762-28.095-8.2143-42.143-8.6832-10.662-7.9614-20.077-5.3175-33.052l-4.5689 2.1466c-1.7742 13.85-1.4822 9.9305-0.62763 20.779-16.831 1.7815-24.763 0.78037-30.379-1.6594-4.4041-1.7162-0.58323-8.0436 4.1072-12.857z"/>
<path style="fill:#0036f6" d="m208.44 311.98c1.8149 19.293 2.3665 25.893 4.0573 29.237 5.3425-3.4925 9.074-6.8825 16.145-12.464-7.2026-16.28-5.4762-28.095-8.2143-42.143-8.6832-10.662-7.9614-20.077-5.3175-33.052l-4.5689 2.1466c-1.7742 13.85-1.4822 9.9305-0.62763 20.779 3.5981 11.703-2.8039 21.36-1.474 35.497z"/>
<path style="stroke:#000;stroke-width:1.5;fill:none" d="m178.68 262.09c-0.0591-0.0657-27.001 51.697-30.855 70.094-1.9943 9.5208 38.004 21.549 59.383 12.998 9.7076-5.4762 14.413-10.952 21.429-16.429-7.2026-16.28-5.4762-28.095-8.2143-42.143-8.6832-10.662-7.9614-20.077-5.3175-33.052l-4.5689 2.1466c-1.7742 13.85-1.4822 9.9305-0.62763 20.779-16.831 1.7815-24.763 0.78037-30.379-1.6594-4.4041-1.7162-0.58323-8.0436 4.1072-12.857z"/>
<path style="stroke:#000;stroke-width:1.5;fill:#fbdaaf" d="m138.28 173.37c-3.3333 22.143-31.759 55.057 42.944 88.776 17.911 7.957 54.2-10.435 62.143-21.342 12.259 4.7409 18.709-1.9362 23.644-6.5476 15.311-14.305 0.80737-50.106-24.359-0.95242l22.413-41.006s-35-52.5-37.143-53.929c-2.1428-1.4286-49.286-5-49.286-5l-40.357 40z"/>
<path style="fill:#c00000" d="m161.08 251.72 8.6433-25.069c1.0757-7.839 38.75-3.5868 37.113 7.4326l-0.27124 27.68-7.6046 1.8033c-11.192 1.2249-13.944-0.22927-17.5-1.4286-8.7483-3.5584-15.663-7.1735-20.381-10.418z"/>
<path style="fill:#ffb1b1" d="m162.71 247.14c18.593-13.305 36.333-8.7244 44.286-5l-0.17857 19.554-7.9018 2.0536c-5.6612 0.54801-11.19 0.7917-16.027-0.89286-8.0044-2.9351-15.296-6.741-22.232-10.982z"/>
<path style="fill:#ff8e8e" d="m175.57 240.71c24.566-0.89219 28.039 6.2655 28.125 21.339l3.125-0.80357v-19.464c-9.9082-3.0689-19.053-3.9226-31.25-1.0714z"/>
<path style="stroke:#000;stroke-width:1.5;fill:none" d="m138.28 173.37c-3.3333 22.143-31.759 55.057 42.944 88.776 17.911 7.957 54.2-10.435 62.143-21.342 12.259 4.7409 18.709-1.9362 23.644-6.5476 15.311-14.305 0.80737-50.106-24.359-0.95242l22.413-41.006s-35-52.5-37.143-53.929c-2.1428-1.4286-49.286-5-49.286-5l-40.357 40z"/>
<path style="stroke:#000;stroke-width:2.5001;fill:#fff" d="m177.56 190.56c0 6.6646-6.1292 12.067-13.69 12.067s-13.69-5.4028-13.69-12.067c0-6.6646 6.1292-12.067 13.69-12.067s13.69 5.4028 13.69 12.067z"/>
<path style="stroke:#000;stroke-width:3;fill:#fff" d="m220.22 194.89c0 1.8816-2.0917 3.4069-4.6719 3.4069s-4.672-1.5253-4.672-3.4069 2.0917-3.4069 4.672-3.4069c2.5802 0 4.6719 1.5253 4.6719 3.4069z"/>
<path style="stroke:#000;stroke-width:1.5;fill:none" d="m161.27 251.47 8.4539-24.817c1.0757-7.839 38.75-3.5868 37.113 7.4326l-0.27124 26.986"/>
<path style="stroke:#000;stroke-width:2.5001;fill:#fff" d="m233.63 197.52c0 6.6646-6.1292 12.067-13.69 12.067s-13.69-5.4028-13.69-12.067c0-6.6646 6.1292-12.067 13.69-12.067s13.69 5.4028 13.69 12.067z"/>
<path style="stroke:#000;stroke-width:1.5;fill:none" d="m162.71 247.14c18.593-13.305 35.702-8.9769 43.654-5.2525"/>
<path style="stroke:#000;stroke-width:2;fill:none" d="m145.83 170.79c5.6669 11.279 35.981-1.7601 33.856-8.5088"/>
<path style="stroke:#000;stroke-width:2;fill:none" d="m216.94 169.6c0.81508 9.0658 9.8143 17.579 33.332 19.032"/>
<path style="stroke:#000;stroke-width:2;fill:none" d="m251.25 231.56c6.5819-15.345 18.913-19.518 17.857-17.143"/>
<path style="stroke:#000;stroke-width:2;fill:none" d="m260.27 218.52c2.8015-1.1063 10.791-1.6729 6.6568 7.426"/>
<path style="fill:url(#l)" d="m146.81 214.55c-9.1873-1.7996-16.109-6.1339-15.46-9.6812 0.64825-3.5472 8.6212-4.964 17.808-3.1645 9.1873 1.7996 16.109 6.1339 15.46 9.6812-0.64825 3.5472-8.6213 4.964-17.808 3.1645z"/>
<path style="fill:url(#k)" d="m229.61 226.67c9.3281 0.79461 17.174-1.4706 17.526-5.0594 0.3516-3.5888-6.925-7.1422-16.253-7.9368-9.3282-0.79461-17.174 1.4706-17.526 5.0594-0.35159 3.5888 6.9251 7.1422 16.253 7.9368z"/>
<path style="stroke:#000;stroke-width:1.5" d="m276.14 156.94s96.429-89.286 85 73.929c-42.857-73.571-86.429-54.286-86.429-54.286"/>
<path style="stroke:#000;stroke-width:3;fill:#fff" d="m261.49 161.59 15-5.3571s3.2143 18.929 1.4286 18.929-11.071 10.357-11.071 10.357l-5.3572-23.929z"/>
<path style="stroke:#000;stroke-width:1.5" d="m134.35 140.51c-28.626-13.262-71.178-36.463-96.429 58.214 4.4744-7.6307 14.585-26.146 18.214-27.857-3.4619 0-20.646 47.5-17.857 58.571 13.934-30.749 69.177-56.623 72.143-52.857 12.49-17.633 7.8754-5.7435 6.3822 19.516 12.437-19.489 11.056-18.967 15.49-2.3192 1.4467-12.759 3.5214-15.89 7.0005-18.175 2.9962-1.9676 0.51169 6.6252 7.2365 10.524 6.7387-35.665 21.033-33.118 21.033-33.118-1.5992 9.0232 4.8343 13.633 9.6429 23.571 3.4995-23.069 10.473-23.814 21.071-29.286 1.561 18.58 8.558 22.968 2.5 36.786 9.9101-8.5333 8.2974-7.4372 15.357-23.571 3.6712 5.1898 4.4519 11.848 3.5714 22.5 11.926-13.493 9.5018-22.964 12.302-21.172 6.0949 3.9009 6.4816 40.861 4.1268 52.957 2.5937-1.2171 17.532-14.602 15-14.286 1.979 2.5224-3.159 23.42-7.0868 30.827 12.874-28.141 23.872-24.917 28.032-17.709 24.998-110.74-106.86-110.78-125.52-79.904-10.991 16.708-6.3276 6.2385-12.215 6.7857z"/>
<path style="stroke:#fff;stroke-width:1.5" d="m157.58 123.14c-34.822-5.6912-48.317 34.33-42.348 75.484"/>
<path style="filter:url(#j);fill:#fff" d="m84.79 127.22c-1.7617 1.5194-3.5411 3.0455-5.4538 4.3747-1.5932 0.63762-5.5066 3.4672-4.7795 1.9129 0.8904-1.9035 3.5808-2.2018 5.4036-3.2472 0.57258-0.3284 1.1804-0.59141 1.778-0.8717 0.81657-0.38299 3.9259-1.7822 4.7292-2.0763 0.72801-0.26654 1.4852-0.44548 2.2278-0.66823 0.55668-0.0135 1.1348-0.19409 1.67-0.0406 1.1457 0.32848 1.0993 1.4386 0.85614 2.3551-0.53988 2.0352-2.5959 4.4348-3.8569 6.0866-2.1655 2.5249-2.4746 3.2664-6.6642 4.0716-0.49168 0.0945 0.64997-0.76311 1.0035-1.1177 0.48832-0.48979 2.5934-2.3836 3.0845-2.8283 2.2685-1.8525 2.8583-2.4469 6.4457-4.0762 0.19243-0.0874 0.43114 0.28208 0.40086 0.49124-0.0591 0.40794-0.35013 0.76026-0.62633 1.0662-0.53358 0.59108-2.503 2.0207-3.0899 2.4619-2.814 1.8889-2.8988 1.9996-7.1573 4.2658-0.77101 0.41032-1.691 0.39953-1.6102-0.70224 0.0186-0.25432 0.16815-0.48149 0.25223-0.72223-0.164 0.33061 0.61959-0.86431 0.29899-0.99671-0.19132-0.079-0.41397 0.004-0.62096 0.004-0.4344-0.00023-0.86893-0.0169-1.3032-0.005-3.7653 0.10139 0.54542 0.087-2.9033 0.0783-0.25457-0.13833-0.63586-0.155-0.7637-0.41499-0.40689-0.8275 0.5784-1.5845 1.0287-1.9598 0.40535-0.33783 0.8488-0.63068 1.3043-0.89699 1.8472-1.08 3.697-2.1596 5.5994-3.1391 0.31403-0.1617 0.68285-0.18098 1.0243-0.27147 1.0131 0.0414 0.64562 0.95465 1.0261 1.2562 0.10288 0.0815 1.4804-0.45969 1.5515-0.48515 0.64833 0.0404 0.97143-0.0875 1.4084 0.50303 0.2037 0.27529 0.26452 1.0558 0.68253 1.2517 0.43956 0.20605 1.7971-0.029 2.0813-0.0598 0.75135-0.0522 3.2334-0.82397 3.8712-0.30516 1.179 0.95902-1.0612 3.1472-1.5066 3.6857-1.0818 1.2425-2.3019 2.3476-3.5342 3.4354-0.17403 0.15364-0.35168 0.3032-0.52378 0.459-0.0464 0.042-0.0733 0.11109-0.1315 0.13423-1.5721 0.62496-3.1626 1.2026-4.7438 1.8039 1.8931-1.2832 2.4638-1.6922 5.5444-3.1983 0.11247-0.055 0.29009 0.1145 0.28913 0.23968-0.007 0.93556-0.60621 1.1849-1.2511 1.7192-0.41926 0.34737-0.84543 0.6863-1.2682 1.0294-0.43087 0.35058-0.86602 0.69597-1.2926 1.0518-0.25676 0.21414-0.50993 0.43275-0.75718 0.6578-0.0345 0.0314-0.0979 0.15517-0.0864 0.11 0.0749-0.29356 0.0629-0.65279 0.27908-0.86503 0.34069-0.33442 0.84784-0.43908 1.2722-0.65774 0.54068-0.27859 1.082-0.55601 1.623-0.83401 0.74986 0.48242 1.578-1.3778 2.4176-1.0978 0.24667 0.0823 0.37038 0.49334 0.2683 0.73249-0.16469 0.38586-0.60103 0.58945-0.93878 0.83831-1.7712 1.305-6.4828 3.5248-7.1577 3.8736-0.36644-0.0652-0.77856-0.007-1.0993-0.19549-1.1472-0.67508-0.58453-2.2513-0.43532-3.2201 0.14521-0.94284 0.11332-0.90902 0.099-1.7731 0.21288-3.1988 0.89148-3.2334 5.1588-4.1903 0.30159-0.0676-0.20859 0.58189-0.31288 0.87283 0.14866-0.0954-1.0479 2.6048-0.56202 2.4106 0.19363-0.0774 0.53258-0.60376 0.33923-0.52563-1.1699 0.4727-2.1593 1.3542-3.3588 1.7457-0.53278 0.17388 0.8634-0.7148 1.2951-1.0722 2.1248-1.9565 3.8976-3.6835 6.8694-4.7163 0.3451-0.11994 0.19712 0.73326 0.11722 1.0898-0.0284 0.12659-1.3483 2.4612-1.3808 2.5192-0.19813 0.38447-0.91347 1.5567-0.92199 2.1723-0.001 0.0803 0.14833 0.0995 0.22668 0.0818 0.20079-0.0454 0.37034-0.18041 0.56027-0.2598 1.0022-0.41894 0.70985-0.30853 1.7476-0.5089 0.18302 0.12818 0.46221 0.17866 0.54905 0.38453 0.12079 0.28633 0.0747 0.62909 0.006 0.93227-0.0718 0.31897-0.26071 0.60055-0.41611 0.88821-1.1248 2.0821-2.1174 1.4757-5.342 2.7963 1.0207-2.0339 1.0128-0.52097 5.0665-2.4837 0.12239-0.0593-0.0888-0.30463-0.00042-0.40792 0.16882-0.19718 0.44777-0.26315 0.67786-0.3833 0.38104-0.19898 0.76995-0.38252 1.1549-0.57378 0.40822-0.18822 0.80309-0.40862 1.2247-0.56466 0.44075-0.16315 1.3356-0.54363 1.1034 0.56031-0.18729 0.89067-2.4141 2.8556-3.0533 3.4908-0.23885 0.27206-0.47771 0.54412-0.71656 0.81618 0.006 0.0423-0.0217 0.1454 0.0168 0.12692 0.25953-0.12463 0.45199-0.37012 0.71817-0.47985 0.52682-0.2172 1.0947-0.31762 1.6374-0.49127 1.7481-0.55932 2.1488-0.72882 3.8514-1.3589 0.38497-0.0709 2.5547-1.2975 2.9461-0.43695 0.42662 0.93793-0.69076 2.1014-1.1387 2.7544-1.4767 2.043-2.8518 4.1559-4.2641 6.243-0.21192 0.48733-1.6483 2.0828-1.6176 2.5722 0.005 0.0856 0.16191 0.0632 0.24734 0.0713 0.27128 0.0255 0.54463 0.0192 0.81695 0.0288 1.4882 0.0597 2.9133-0.49176 4.3874-0.56104 0.34137-0.016 0.71839-0.0702 1.0215 0.0877 0.21593 0.11248 0.411 0.39486 0.36336 0.63362-0.0824 0.41308-0.46649 0.70149-0.69974 1.0522-0.60584 0.39209-1.1963 0.80896-1.8175 1.1763-5.6056 3.3147-11.337 6.4062-16.988 9.6407-0.62866 0.35572-1.2573 0.71144-1.886 1.0672l3.7886-3.0602c0.59959-0.33328 1.1992-0.66657 1.7988-0.99985 3.4813-1.9596 6.9604-3.9251 10.449-5.8718 0.57702-0.32202-1.0563 1.0037-1.717 0.9909-0.64157-0.0124 1.0998-0.66147 1.6497-0.9922 0.6912-0.37406 1.6172-0.79985 0.0132-0.71694-1.5296 0.0791-3.0146 0.61247-4.5605 0.51598-0.60433-0.13081-1.3887-0.074-1.6051-0.86238-0.11985-0.43679 1.4278-2.3124 1.6709-2.7283 1.4318-2.0869 2.857-4.1783 4.2988-6.2581 0.37467-0.55411 0.71163-1.1347 1.1133-1.6695 0.0714-0.0951 0.22492-0.1347 0.25454-0.24983 0.0155-0.0601-0.1101-0.0784-0.17181-0.0718-0.6848 0.0742-1.6374 0.4624-2.2137 0.66087-1.2693 0.45504-2.6202 0.95065-3.9019 1.3617-0.82278 0.26387-2.1801 0.90835-3.1315 0.37422-0.48781-0.27386 0.78908-1.9365 0.80806-1.471 1.6226-1.6062 0.80417-0.76783 2.2819-2.334 0.21353-0.22632 0.38474-0.50224 0.64131-0.67828 0.0864-0.0593 0.40336-0.0312 0.31365 0.023-0.57713 0.34907-1.4616 0.005-1.876 0.75832-0.42056 0.20494-0.8284 0.43836-1.2617 0.61483-0.30205 0.12302-0.61316 0.31698-0.9373 0.28079-0.21567-0.0241-0.66283-0.32107-0.4807-0.43909 7.6705-4.9702 5.9394-3.4992 4.5311-2.0308-9.9715 4.668-5.2513 3.1699-4.1576 1.5913 0.16062-0.23183 0.27356-0.49367 0.42442-0.73198 0.28259-0.44642 0.42358-0.28811 0.0208-0.46748-0.27145 0.0653-0.54453 0.1241-0.81435 0.19581-0.56809 0.15098-1.2692 0.51637-1.8815 0.16856-1.0044-0.57057 0.42256-2.3864 0.62179-2.9234 0.23475-0.4381 0.4757-0.87295 0.70427-1.3143 0.17772-0.34319 0.245-0.76198 0.51442-1.0391 0.11711-0.12043 0.35569 0.071 0.50387-0.008 1.3901-0.74213 2.656-1.7053 4.0569-2.4267 0.8779-0.45209-3.6441 2.7252-2.2039 1.9796-2.3858 2.1276-2.3764 2.2526-6.681 4.3801-0.25409 0.12559-0.61711 0.00029-0.82935-0.18756-0.43081-0.38128 0.44327-2.2163 0.52728-2.6782 0.6331-2.6035-0.02-0.82309 5.1163-3.386 0.0799-0.0399-0.14161 0.11672-0.1822 0.19621-0.30537 0.59801-0.45633 1.2937-0.51538 1.9552-0.009 0.82427 0.0172 1.0405-0.12981 1.906-0.0861 0.50684-0.76582 2.1027 0.0486 2.4773 0.26172 0.12038 0.57427 0.0466 0.86141 0.0699-4.5958 3.0847-3.291 2.162-1.5316 1.0926 0.2861-0.17389 0.5398-0.43808 0.86764-0.50597 0.17337-0.0359 0.56248 0.0701 0.48027 0.22687-0.12234 0.23337-0.50248 0.16274-0.74204 0.27247-0.49511 0.22678-0.97251 0.49038-1.4588 0.73556-0.56128 0.29453-1.1225 0.58915-1.6838 0.88359-0.92997 0.4878-1.469 1.1644-2.5053 0.50342-0.19784-0.12619 2.4648-2.0169 2.3646-2.069 0.39541-0.32856 0.79305-0.65445 1.1862-0.98568 0.2863-0.24119 0.51669-0.56533 0.85214-0.73153 0.18871-0.0935 0.42397-0.0378 0.63179-0.004 0.0523 0.009 0.0531 0.14912 0.0996 0.12378 1.347-0.73366 2.6385-1.5651 3.964-2.337 0.16859-0.0982-0.32864 0.21036-0.49295 0.31554l-5.1201 2.0914c0.0872-0.0423 0.1821-0.0715 0.26159-0.127 1.5931-1.1115 3-2.5048 4.3297-3.9075 0.38409-0.45032 0.78782-0.8846 1.1523-1.351 0.22661-0.28999 0.44807-0.58843 0.61831-0.91472 0.0596-0.11431 0.16519-0.31004 0.0584-0.38236-0.66282-0.44906-2.9574 0.34744-3.7128 0.33609-0.93169 0.045-1.6622 0.25471-2.4956-0.27602-0.96109-0.61205-0.005-1.5529-1.7019-1.253-0.51015 0.14195-1.062 0.37982-1.6133 0.23077-0.34632-0.0936-0.5491-0.41402-0.62541-0.73316-0.0895-0.37416 0.31348-0.17286-0.32093-0.29891-1.9458 0.61457-1.3008 0.48808 2.0978-1.5391 0.43068-0.25689-0.86124 0.51539-1.2736 0.80072-0.32062 0.22184-0.61213 0.4831-0.92262 0.71889-0.14634 0.11114-0.46432 0.13871-0.44767 0.32171 0.0174 0.19178 0.33521 0.18967 0.50281 0.2845 0.43495 0.004 0.86999 0.0219 1.3048 0.0118 0.78381-0.0182 4.4569-0.60897 4.2161 1.0339-0.0365 0.24913-0.2367 0.44449-0.35505 0.66674-0.0938 0.17786-0.16646 0.36858-0.28139 0.53358-0.0458 0.0658-0.21403 0.0685-0.19163 0.14555 0.0794 0.27302 1.5763-0.61843 1.0057-0.22605-0.39938 0.27465-5.6176 3.3764-1.2836 0.68334 0.53704-0.39806 1.0741-0.79612 1.6111-1.1942 0.43214-0.36296 0.84484-0.75041 1.2964-1.0889 0.22663-0.16987 0.48798-0.28768 0.73197-0.43152 0.0742 0.0393 0.1484 0.15711 0.22265 0.11788 1.1886-0.6281 2.2529-1.4816 3.4636-2.0659 0.53111-0.25633-0.93774 0.71541-1.4066 1.0731-1.4879 1.3507-1.536 1.3721-2.9358 2.7256-0.2878 0.27828-0.5028 0.6513-0.85277 0.84568-1.5742 0.87434-3.1976 1.6714-4.8721 2.3339-1.0178 0.40268 5.0003-3.3489 2.3389-2.3047 1.382-1.7715 2.9596-3.5676 3.7338-5.7197 0.18935-0.52631 0.5012-1.4489-0.37612-1.6589-0.4738-0.11339-0.97383 0.0316-1.4608 0.0475-0.70789 0.21821-1.4303 0.39387-2.1237 0.65463-1.0318 0.38807-3.8147 1.6868-4.8147 2.1839-0.65404 0.32512-2.5173 1.4666-1.9391 1.0204 2.8336-2.1864 7.411-3.926-1.4912 0.0138 1.9822-1.1425 3.6862-2.731 5.4027-4.2281l4.885-2.0234z"/>
<path style="filter:url(#i);fill:#fff" d="m324.5 135.03c-3.2306-0.20981-9.0456 0.46857-12.247 0.85555 3.0382-1.1582-2.4954 0.66762-1.9626 0.2769 1.5824-1.1605 3.1881-2.3022 4.8951-3.27 0.4504-0.25538 1.0089-0.23374 1.5105-0.362 1.2451-0.31837 5.5994-1.0665 6.8294-1.4069 0.14613-0.0376 2.5555-0.69588 3.0399-0.7081 0.1738-0.004 0.42383 0.0277 0.48563 0.19024 0.31176 0.81971-0.4743 1.1945-0.97685 1.5511-0.34649 0.24585-0.71851 0.45357-1.0778 0.68036l-0.76042 0.52393c-0.0356 0.0362-0.12367 0.15666-0.10682 0.10873 0.0482-0.13704 0.0752-0.31793 0.20397-0.3851 0.19857-0.10356 1.1784-0.13256 1.3883-0.0108 0.16768 0.0972 0.2048 0.32916 0.3072 0.49374-0.15071 0.29001-0.23289 0.62766-0.45214 0.87004-0.30956 0.34222-0.72328 0.57379-1.0978 0.84339-0.79152 0.56981-1.0326 0.96503-1.7894 1.5802-0.65135 0.52948-3.1778 0.64774-3.0772 1.1716 0.53173 0.36107 1.7821 0.4381 2.0842 1.0456 0.60695 1.2208-1.8915 2.268-2.5914 2.7901 0.0631 0.0587-2.563 1.4714-2.3319 1.7192 0.0757 0.0811 0.17499-0.15261 0.28391-0.1738 0.21323-0.0415 1.4513-0.0628 1.6808-0.0684 1.2683 0.45897-0.29145-0.22011 0.63094 0.55627 0.0465 0.0392 0.0374-0.12996 0.0915-0.15783 0.13944-0.0719 0.30061-0.0914 0.45416-0.12352 1.3246-0.2774 0.1473 0.0354 1.1178-0.23602-1.4534 1.0966-2.8711 2.2423-4.3602 3.2898-0.16394 0.11533-0.38464 0.11371-0.57348 0.18093-0.2628 0.0935-0.52589 0.18781-0.78078 0.30114-0.25611 0.11387-0.99349 0.51892-0.75029 0.37959 4.1477-2.3764 5.0393-3.2882 3.8292-2.0846 0.2322 0.21665 0.30473 0.49314 0.12888 0.8304-0.38813 0.74436-1.9992 2.0822-2.6356 2.6983-0.16454 0.24011-0.41093 0.44124-0.49362 0.72033-0.0255 0.086 0.16388 0.0975 0.25331 0.0907 0.34065-0.0259 0.67332-0.11696 1.0078-0.18674 1.5472-0.32279 3.0018-0.76429 4.471-1.3415 0.1262-0.0907 0.50466-0.36301 0.37858-0.27214-1.5443 1.113-3.0395 2.2975-4.6332 3.3385-0.31239 0.20406-0.70668 0.24064-1.0542 0.37658-1.3558 0.53037-2.6361 1.1404-3.8912 1.8744 1.2076-0.67409 2.4151-1.3482 3.6227-2.0223-0.32919-0.0142-0.36465 0.40019-0.60534 0.50635-0.0613 0.027-0.0265-0.17785 0.0376-0.19737 0.0965-0.0294 0.20163 0.003 0.30244 0.005 0.25692 0.006 0.51525 0.024 0.76839-0.0275l-4.305 3.1457c-0.2563-0.0435-0.51688-0.0459-0.77486-0.0764-1.0865-0.25699-1.1719-0.88439-0.2155-1.4731 1.6897-1.0401 3.4097-2.03 5.1146-3.045 1.284-0.68091 2.5921-1.2939 3.9522-1.8111 0.4036-0.15349 1.5127-0.74286 1.2252-0.42066-1.0677 1.1967-2.4096 2.118-3.6484 3.1366-0.0714 0.0587-0.17685 0.0543-0.26527 0.0814-0.82434 0.27541-6.5059 2.3911-6.4471 0.38505 0.01-0.3374 0.35514-0.57413 0.53271-0.86119 0.7201-0.70167 1.1472-1.1206 1.8676-1.8119 0.21486-0.20617 0.41432-0.43022 0.64738-0.61555 0.0757-0.0602 0.24023-0.0192 0.26751-0.11196 0.0742-0.25212-0.68609-0.37031-0.39786-0.68065 0.0248-0.15063-0.0522-0.36658 0.0744-0.45187 1.5818-1.0655 3.2683-1.9672 4.9234-2.9149 0.349-0.19982 1.2356-0.52471 1.5997-0.66496 0.21827-0.0841 0.83167-0.40526 0.65487-0.2521-1.2882 1.116-2.6776 2.1095-4.0164 3.1642-0.53252 0.0771-1.2352 0.3263-1.7661 0.15184-1.5759-0.51786 0.46458-0.16174-0.51916-0.32906-0.71848-0.004-2.188 0.24094-2.5541-0.61639-0.28908-0.67698 2.0949-1.8066 2.4216-2.054 0.14596-0.10056 1.7476-1.1882 1.9882-1.4065 0.11758-0.1067 0.31743-0.24272 0.26816-0.39366-0.20522-0.62878-2.0612-0.61253-2.3012-1.3415-0.067-0.26197-0.26911-0.52425-0.20092-0.7859 0.17016-0.65292 1.3975-1.3163 1.7913-1.5812 0.9282-0.62446 1.8277-1.36 2.8624-1.7948 0.41749-0.4083-0.81101 0.11574-1.3614-0.0321-0.28461-0.0764-0.58185-0.22827-0.74755-0.47196-0.25815-0.37963 1.1858-1.1196 0.95612-0.9913 0.35008-0.20916 0.70315-0.41339 1.0502-0.62747 0.2773-0.17105 3.105-0.66902 3.4112-0.78031 0.16656-0.0605 0.3538 0.0505 0.53042 0.036 0.0628-0.005-0.11467-0.0698-0.17749-0.065-0.88595 0.0683-4.5869 0.64567-5.3926 0.84173-3.9404 1.0988-0.41671 0.11008-4.3545 1.2326-0.56519 0.16111-2.0434 0.95352-1.6968 0.47886 0.90358-1.2376 2.3416-1.9771 3.5125-2.9656 0.0779 0.0161 0.15443 0.0538 0.23384 0.0483 0.46495-0.0319 0.92598-0.10656 1.389-0.15983 3.3257-0.36449 9.2424-1.0031 12.592-1.0369l-4.2782 3.1083z"/>
<path style="filter:url(#h);fill:#fff" d="m139.75 125.03c-2.2676 2.1082-4.6428 4.0816-7.0332 6.0361-0.20405 0.16607-1.9915 1.6139-2.3682 1.942-0.10067 0.0877-0.24108 0.41591-0.28197 0.2861-0.31654-1.0048 0.69545-1.1817 1.2846-1.5298 0.57552-0.34002 1.1522-0.6778 1.7284-1.0167-0.68923 0.40014-1.2951 1.0329-2.0677 1.2004-0.69437 0.15062 1.2071-0.77593 1.8204-1.1468 1.8391-1.1122 3.6789-2.2238 5.5365-3.3023 0.32951-0.19131 0.67114-0.36218 1.0223-0.50581 0.11338-0.0464 0.32994-0.18257 0.3609-0.06 0.0822 0.32549-0.0822 0.66762-0.12325 1.0014-2.7391 2.0946-6.0856 4.7441-9.178 5.9608-0.23996 0.0944-0.14372-0.5126-0.21558-0.7689 0.27232-0.18998 0.5339-0.39786 0.81698-0.56997 1.7911-1.089 3.5927-2.1596 5.4037-3.2122 0.44338-0.25772 0.90494-0.47996 1.3582-0.71826 0.34259-0.1801 1.6168-0.89824 2.1279-0.99885 0.16185-0.0319 0.32531 0.054 0.48795 0.081 0.35141 0.95358-0.0785 1.1984-0.47974 1.9795-0.0627 0.12208-0.11381 0.25064-0.16017 0.38038-0.006 0.0154-0.002 0.0628 0.007 0.0489 0.0396-0.0648 0.0609-0.1398 0.0914-0.20969 0.27881-0.20398 0.59493-0.3266 0.90701-0.10255 0.0979 0.0703 0.38468 0.45434 0.38505 0.45431 0.14315-0.0118 0.241-0.16254 0.3615-0.24381 0.29091-0.11411 0.58621-0.21676 0.87272-0.34235 0.39449-0.17292 0.78382-0.35877 1.1692-0.55267 0.55376-0.27859 1.5469-0.90762 2.2208-1.0161 0.20774-0.0334 0.49907-0.0741 0.62289 0.10274 0.18891 0.26982 0.095 0.66034 0.14257 0.99052-0.64109 1.6398-1.7748 2.9885-2.8273 4.3527-0.34883 0.45214-1.1877 1.3468-1.4649 1.9668-5.4119 2.2246-5.4077 2.8113-3.6831 1.1693 0.88368-0.84136 1.7394-1.6998 2.676-2.4788 1.532-0.89324 3.0274-1.8582 4.596-2.6798 0.0879-0.046 0.17329 0.0985 0.26583 0.13318 0.13221 0.0495 0.29492-0.002 0.41576 0.0724 0.1077 0.0665 0.20832 0.15754 0.27191 0.26982 0.0793 0.14008 0.0959 0.3095 0.14386 0.46426 0.49975-0.15866-0.19646 0.48899-0.0333 0.58666 0.0179 0.0107 0.008-0.15948 0.1143-0.3038 0.16048-0.21833 0.28597-0.23559 0.52845-0.35259 0.51463-0.20673 0.24411-0.15122 0.81333-0.15691l-4.0834 3.1806c-0.48063 0.1537-0.23972 0.0584-0.72069 0.29127-0.15714 0.0833-0.4474 0.27185-0.64907 0.25617-0.47809-0.0372-0.74249-0.59169-0.49621-0.99627 0.0593-0.14549 0.0901-0.11693-0.0933-0.16136-1.7013-0.41217-4.302 2.495 3.6322-2.5471-0.70319 0.50234-1.3707 1.0449-1.9965 1.6504-0.26541 0.25676-0.51446 0.53123-0.76966 0.79894-0.19593 0.20555-0.33597 0.4891-0.58372 0.62081-1.6417 0.87275-3.3602 1.5793-5.0403 2.369 0.45494-0.80477 1.2131-1.4999 1.7782-2.2044 0.99251-1.2372 1.9752-2.5152 2.6848-3.9554 0.0827-0.0901 0.31088-0.1641 0.24818-0.27025-0.0702-0.11881-0.2725-0.0263-0.4019 0.01-0.30579 0.0857-0.59877 0.21728-0.888 0.35157-1.1646 0.54081-2.2678 1.2598-3.5379 1.5228-0.23166-0.0457-0.47038-0.0624-0.69496-0.13713-0.16902-0.0562-0.0491-0.16005-0.19441-0.15693-0.30073 0.006-0.58364 0.21056-0.89579 0.11108-0.1342-0.0991-0.30113-0.16247-0.40259-0.29729-0.0797-0.10585-0.12078-0.25206-0.11182-0.38618 0.022-0.32887 0.56919-1.313 0.82323-1.4953 0.0786-0.0564 0.19078 0.004 0.28618 0.006-0.76203 0.0828-1.5903 0.62689-2.2374 0.9731-0.46384 0.24818-1.8252 1.0488-1.3844 0.75881 1.3141-0.86456 4.5244-2.7011 2.3311-1.441-1.6996-1.3951-0.34087-0.56545-4.3326 1.9132-0.35709 0.22173 0.71974-0.43437 1.0687-0.66968 0.74907-0.50507 1.6372-1.1845 2.3538-1.741 0.28829-0.22382 0.57222-0.45365 0.85835-0.68046 0.2408 0.0808 0.49351 0.13022 0.72242 0.24239 0.0437 0.0214-0.0947 0.023-0.13876 0.0436-0.29901 0.13964-1.163 0.62407-0.88928 0.43648 0.8365-0.57331 1.7143-1.0788 2.5832-1.5974 2.6205-1.564-21.846 13.454-7.8034 4.796-0.61199 0.36717-1.2209 0.73999-1.836 1.1015-0.3337 0.19613-1.6894 1.4796-2.2104 0.35639-0.0841-0.18135 0.28625-0.27158 0.43823-0.39623 0.83035-0.68105 1.708-1.2983 2.521-2.003 2.2992-1.8646 4.6062-3.7344 6.6808-5.8717l4.7451-1.9933z"/>
<path style="stroke:#000;stroke-width:1.5;fill:url(#o)" d="m254.49 130.72s18.379-15.352 11.025-20.035c-7.3542-4.6835-10.172 19.295-11.025 20.035z"/>
<path style="stroke:#000;stroke-width:1.5;fill:url(#n)" d="m259.34 133.46s12.065-0.13622 10.246-4.9947c-1.8192-4.8585-9.6785 4.9758-10.246 4.9947z"/>
<path style="stroke:#000;stroke-width:1.5;fill:url(#m)" d="m282.53 184.46s7.5024 10.317 9.7713 6.1694c2.2689-4.1474-9.4096-5.6906-9.7713-6.1694z"/>
<g style="stroke:#070707;stroke-width:4">
<path d="m115.96 21.08c-1.3079 4.5071-0.96094 9.2496-1.4969 13.872-0.0459 13.28-1.8577 26.569-0.39119 39.833 0.0473 4.0593 1.073 8.2774-0.004 12.252-2.1648 5.5395-11.108 4.9741-12.949-0.51617-0.64182-4.7026-0.28152-9.5368-0.68703-14.284-0.18918-4.6292-0.35415-9.2664-0.14529-13.898-12.729 0.68504-25.172 3.6841-37.695 5.8594-0.36376 7.8551-1.1005 15.7-1.2909 23.557-0.90037 5.5483-9.1725 6.9398-12.091 2.2705-2.0433-3.5117-0.67963-7.7844-0.73738-11.633 0.77144-9.3503 1.5803-18.707 1.4313-28.099 0.22857-10.751 0.38085-21.517 0.64888-32.258 0.90037-5.5483 9.1725-6.9398 12.091-2.2705 2.0692 3.6446 0.61997 8.0785 0.89388 12.057-0.30437 7.5002-0.25721 15.01-0.94882 22.488-0.23183 1.8538 2.501 0.12983 3.6988 0.25611 11.275-2.0365 22.509-4.6343 33.999-5.0687 0.44624-6.6707 0.24588-13.389 0.90085-20.038 1.0313-4.2213 2.4561-8.9491 6.1348-11.602 4.3593-2.2611 10.114 2.4848 8.6381 7.2228z"/>
<path d="m173.58 26.21c-4.3943-0.68308-8.7069-2.0749-13.195-2.2714-7.0751-0.60999-14.176 0.48189-21.034 2.1738-0.0162 6.4312-0.22756 12.86-0.43946 19.287 10.313-0.7912 20.578-2.1998 30.908-2.7343 4.5096-0.29732 8.153 4.3837 6.7644 8.6916-0.88462 4.3029-5.8555 4.7822-9.4553 4.8643-9.7066 0.78071-19.382 1.9077-29.096 2.6062-0.26898 6.5608-0.77921 13.212 0.28989 19.724 1.7571 3.1578 6.7338 1.2842 9.8813 1.7818 6.915-0.27016 13.87 0.07525 20.737-0.85086 4.5099-0.3486 8.3071 4.2119 6.9281 8.5857-0.81771 4.1286-5.5646 4.9421-9.0891 5.0952-9.2433 0.47986-18.581 0.9519-27.791-0.22989-4.7345-0.65705-10.217-2.2862-12.221-7.1248-3.6464-8.5123-2.7398-18.037-2.4138-27.056 0.47244-10.425 1.8259-20.846 1.4466-31.29-0.30086-4.4395-2.217-9.6536 0.85448-13.556 3.1257-3.7273 7.6806-0.39095 11.186-1.1409 11.934-2.7843 24.695-3.4669 36.558-0.00001 3.3948 0.68374 6.4661 3.6541 5.8905 7.3329-0.28048 3.3193-3.3239 6.2491-6.7111 6.1115z"/>
<path d="m232.81 86.95c-8.8684 3.5328-18.458 4.7395-27.868 5.9326-5.5249 0.33815-11.808 1.5625-16.655-1.8428-3.7479-2.8236-3.5803-7.9618-3.1007-12.146 1.3731-19.761 1.9948-39.568 2.0006-59.375 0.23909-5.0007 6.6318-7.7137 10.602-4.908 3.6952 2.2015 2.9599 6.8148 2.9791 10.434-0.10152 17.723-0.5715 35.459-2.1132 53.119-0.83393 3.7883 4.9045 1.1284 7.3263 1.3686 7.936-1.0109 15.661-3.1757 23.339-5.3397 5.1042-1.1322 9.4507 4.94 7.1419 9.4795-0.7174 1.532-2.1353 2.608-3.6514 3.2774z"/>
<path d="m257.18 61.56c-2.1087-0.03983-5.0805-1.276-4.186 2.009-0.27777 7.1151-0.0569 14.251-0.32148 21.358-0.72591 4.9167-7.6079 6.7727-10.898 3.1952-2.686-2.6229-1.6062-6.54-1.8311-9.8781-0.17242-11.868 0.4847-23.722 1.2695-35.56 0.48512-7.0565 0.53443-14.135 0.87053-21.194 0.28427-3.5655 1.7569-8.3982 6.0844-8.5293 5.3056-0.72 10.754-1.1737 16.124-0.64545 8.6031 1.1833 16.94 6.1368 21.416 13.674 4.7009 8.8037 2.0903 20.583-5.2574 27.154-6.25 5.78-14.85 8.503-23.27 8.416zm2.4414-36.865c-2.5453-0.04967-5.9861-0.67333-4.7974 3.0151 0.0259 6.9821-0.47566 13.95-0.96433 20.911 7.2912 1.3189 16.103-0.91568 19.995-7.7026 1.9668-3.6067 1.999-8.7091-1.4862-11.429-3.4767-3.0769-8.1024-4.8312-12.747-4.7949z"/>
<path d="m348.31 74.3c-4.1227 0.29259-7.0437-3.8404-6.316-7.6985-0.53015-16.7 0.0914-33.41 0.0172-50.114-0.24121-4.6419 5.4394-7.5174 9.3124-5.3776 2.6881 1.2115 3.5383 4.2432 3.2852 6.9529-0.0185 16.955 0.037 33.911-0.0279 50.865-0.19551 3.1571-3.1869 5.5093-6.271 5.3727zm-0.14649 17.725c-3.8373-0.16341-6.6145-3.8025-7.6203-7.2266-1.3702-5.0998 5.4682-9.2054 9.5564-6.2377 3.0379 2.2152 5.939 6.5429 3.7855 10.285-1.2113 1.9235-3.4312 3.2153-5.7216 3.1791z"/>
</g>
<g style="display:none" transform="translate(-23.013 122.8)">
<path d="m53.995-42.36c0.74797-0.15397 1.556-0.93796 2.424-2.352 0.86796-1.4139 1.34-2.5339 1.416-3.36-0.06103-0.82095-1.175-1.8429-3.342-3.066-2.167-1.2229-5.021-1.8969-8.5619-2.022-3.2216 0.05989-5.7436 0.70285-7.5661 1.9289-1.8225 1.2261-3.1037 2.6762-3.8435 4.3502-0.73984 1.6741-1.0966 3.213-1.0702 4.6168-0.05067 1.3733 0.17866 2.7813 0.68799 4.2239 0.50932 1.4427 1.6026 2.84 3.28 4.1919 1.6773 1.352 4.2426 2.5787 7.6959 3.68 1.514 0.40101 3.0459 1.039 4.5959 1.914s2.3859 2.173 2.508 3.8939c-0.05602 1.492-0.73601 2.624-2.04 3.396s-2.896 1.16-4.7759 1.164c-3.3612-0.12029-5.7214-0.96235-7.0808-2.5262s-2.1908-3.1276-2.4942-4.6915c-0.30341-1.5638-0.5517-2.4059-0.74488-2.5262-0.332 0.01502-0.87999 0.58501-1.644 1.71-0.76399 1.125-1.192 2.715-1.284 4.7699 0.146 3.809 1.582 6.6429 4.3079 8.5019 2.726 1.859 5.8659 2.785 9.4199 2.778 3.3626-0.05037 6.0826-0.71229 8.1599-1.9858s3.5919-2.8563 4.5439-4.7484c0.95196-1.8921 1.4213-3.7913 1.408-5.6977 0.12397-2.317-0.64002-4.5949-2.292-6.8339s-4.936-4.2169-9.8519-5.9339c-1.463-0.42097-3.025-1.055-4.6859-1.902-1.661-0.84696-2.563-2.1169-2.706-3.81 0.07799-1.384 0.68998-2.3959 1.836-3.036 1.146-0.63996 2.358-0.95595 3.636-0.94799 1.6488 0.05337 2.9964 0.4267 4.0426 1.12 1.0462 0.69336 1.8817 1.3867 2.5066 2.08 0.62486 0.69336 1.1297 1.0667 1.5146 1.12z"/>
<path d="m80.723-12.504c0.37098 0.032 0.84097 0.028 1.41-0.012 0.56897-0.04 0.88297-0.308 0.94199-0.80399-0.11002-0.40899-0.55001-2.183-1.32-5.3219-0.77001-3.139-1.21-7.7809-1.32-13.926-0.01216-1.5579 0.06546-3.386 0.23289-5.4844 0.16739-2.0983 0.49746-3.9513 0.99021-5.559 0.49272-1.6077 1.221-2.4545 2.1849-2.5404 1.1499 0.04922 2.1407 0.39351 2.9724 1.0329 0.83167 0.63943 1.5167 1.2788 2.0551 1.9182 0.53834 0.63943 0.94248 0.98372 1.2124 1.0329 0.35097-0.14597 0.89696-0.99396 1.638-2.544 0.74096-1.5499 1.155-2.9259 1.242-4.1279-0.12503-1.1669-1.591-2.1689-4.3979-3.006-2.807-0.83695-6.2049-1.2749-10.194-1.314-3.365 0.05304-6.3549 0.37904-8.9699 0.97799-2.615 0.59903-4.105 1.153-4.4699 1.662-0.25156 0.50403-0.53244 1.352-0.84266 2.544s-0.58044 2.392-0.81066 3.6-0.35111 2.088-0.36266 2.64c0.001 0.63602 0.059 0.99602 0.174 1.08 0.115 0.08403 0.281 0.10803 0.49799 0.072 0.32-0.06812 1.072-0.54515 2.256-1.4311 1.184-0.88588 2.512-1.7718 3.9839-2.6577 1.472-0.88588 2.8-1.3629 3.9839-1.4311 0.56498 0.006 0.87498 0.21003 0.92999 0.61199 0.05499 0.40203 0.06499 0.96602 0.03 1.692-0.08801 0.91202-0.44 3.012-1.056 6.2999-0.616 3.288-0.968 7.6199-1.056 12.996 0.02043 4.5303 0.21421 7.6295 0.58133 9.2977 0.36709 1.6681 0.78487 2.5629 1.2533 2.6844 0.46843 0.12148 0.86487 0.12741 1.1893 0.01778z"/>
<path d="m113.72-11.784c4.8039-0.117 8.2639-1.623 10.38-4.5179 2.1159-2.895 3.1519-6.4769 3.108-10.746-0.03-4.2059-0.7381-8.2899-2.1244-12.252-1.3864-3.9623-3.2714-7.2393-5.655-9.831-2.3837-2.5916-5.0865-3.9344-8.1083-4.0284-3.0219 0.09396-5.7247 1.4368-8.1083 4.0284-2.3837 2.5917-4.2687 5.8687-5.655 9.831-1.3864 3.9623-2.0945 8.0464-2.1244 12.252-0.044 4.269 0.99199 7.8509 3.108 10.746 2.116 2.895 5.5759 4.4009 10.38 4.5179zm-2.4-8.5439c-2.564 0.02701-4.552-0.56698-5.9639-1.782-1.412-1.215-2.128-3.2129-2.148-5.9939 0.13699-5.3609 1.087-9.5669 2.85-12.618 1.763-3.0509 3.5169-4.6049 5.2619-4.6619 1.745 0.05703 3.4989 1.611 5.2619 4.6619 1.763 3.051 2.7129 7.2569 2.85 12.618-0.02 2.781-0.73602 4.7789-2.148 5.9939s-3.4 1.809-5.9639 1.782z"/>
<path d="m141.33-33c-0.671-0.01998-1.093-0.24398-1.266-0.67199-0.17301-0.42797-0.24701-0.93997-0.222-1.536-0.002-3.6183 0.27406-6.2535 0.82843-7.9057 0.55436-1.6521 1.3034-2.6909 2.2471-3.1164 0.94367-0.42544 1.9985-0.60736 3.1644-0.54577 1.5-0.02297 2.82 0.29903 3.96 0.96599 1.14 0.66702 1.74 1.817 1.8 3.45-0.0836 1.2036-0.80712 2.5244-2.1706 3.9626-1.3636 1.4382-2.8658 2.6844-4.5066 3.7386-1.6409 1.0542-2.9191 1.6071-3.8346 1.6586zm-5.9519-19.44c-0.21488-0.06621-0.50213 0.01229-0.86174 0.2355-0.35962 0.22329-0.72637 0.98878-1.1002 2.2965-0.37387 1.3078-0.68962 3.5552-0.94724 6.7424s-0.39187 7.7117-0.40274 13.573c0.0104 5.8776 0.14963 10.021 0.41777 12.43 0.26815 2.4092 0.60296 3.8183 1.0044 4.2275 0.40147 0.40918 0.80739 0.55258 1.2178 0.43022h6.3839c0.20698 0.018 0.48898 0.018 0.84598 0 0.35699-0.018 0.55498-0.162 0.594-0.43199-0.07-0.298-0.35001-1.526-0.83999-3.684-0.49001-2.158-0.77-4.3219-0.83999-6.4919 0.0977-1.4725 1.0752-2.8025 2.9325-3.9899 1.8572-1.1875 4.0077-2.4695 6.4514-3.846s4.5942-3.0844 6.4514-5.1239c1.8572-2.0394 2.8347-4.6474 2.9325-7.8239 0.0284-0.99699-0.20981-2.1549-0.71466-3.4737-0.50491-1.3188-1.4471-2.4802-2.8266-3.4844-1.3796-1.0041-3.3671-1.5327-5.9626-1.5858z"/>
<path d="m193.88-12.504c0.37098 0.032 0.84097 0.028 1.41-0.012 0.56898-0.04 0.88297-0.308 0.94199-0.80399-0.11002-0.40899-0.55001-2.183-1.32-5.3219-0.77001-3.139-1.21-7.7809-1.32-13.926-0.0122-1.5579 0.0655-3.386 0.23288-5.4844 0.16739-2.0983 0.49746-3.9513 0.99021-5.559 0.49272-1.6077 1.221-2.4545 2.1849-2.5404 1.1499 0.04922 2.1407 0.39351 2.9724 1.0329 0.83167 0.63943 1.5167 1.2788 2.0551 1.9182 0.53834 0.63943 0.94248 0.98372 1.2124 1.0329 0.35097-0.14597 0.89696-0.99396 1.638-2.544 0.74096-1.5499 1.155-2.9259 1.242-4.1279-0.12503-1.1669-1.591-2.1689-4.398-3.006-2.807-0.83695-6.2049-1.2749-10.194-1.314-3.365 0.05304-6.3549 0.37904-8.9699 0.97799-2.615 0.59903-4.105 1.153-4.4699 1.662-0.25156 0.50403-0.53244 1.352-0.84266 2.544s-0.58044 2.392-0.81066 3.6-0.3511 2.088-0.36266 2.64c0.001 0.63602 0.059 0.99602 0.174 1.08 0.115 0.08403 0.281 0.10803 0.49799 0.072 0.32-0.06812 1.072-0.54515 2.256-1.4311 1.184-0.88588 2.512-1.7718 3.984-2.6577 1.472-0.88588 2.8-1.3629 3.984-1.4311 0.56498 0.006 0.87498 0.21003 0.92999 0.61199 0.055 0.40203 0.065 0.96602 0.03 1.692-0.088 0.91202-0.44001 3.012-1.056 6.2999-0.616 3.288-0.96799 7.6199-1.056 12.996 0.0204 4.5303 0.21421 7.6295 0.58132 9.2977 0.3671 1.6681 0.78487 2.5629 1.2533 2.6844 0.46843 0.12148 0.86487 0.12741 1.1893 0.01778z"/>
<path d="m219.05-33.96c-0.692-0.05898-1.12-0.42097-1.284-1.086-0.16401-0.66497-0.23201-1.279-0.204-1.842-0.034-4.0449 0.45398-6.7309 1.464-8.0579s2.602-1.9369 4.7759-1.83c1.36-0.01697 2.588 0.29303 3.684 0.92999 1.096 0.63702 1.676 1.703 1.74 3.198-0.0954 1.4975-0.85393 2.9025-2.2755 4.2151s-2.9339 2.3798-4.5368 3.2017c-1.603 0.82194-2.7241 1.2456-3.3635 1.2711zm-5.9519-18.48c-0.21488-0.06621-0.50213 0.01229-0.86174 0.2355-0.35962 0.22329-0.72637 0.98878-1.1002 2.2965-0.37387 1.3078-0.68962 3.5552-0.94724 6.7424s-0.39187 7.7117-0.40274 13.573c0.0104 5.8776 0.14963 10.021 0.41777 12.43 0.26815 2.4092 0.60296 3.8183 1.0044 4.2275 0.40147 0.40918 0.80739 0.55258 1.2178 0.43022h5.5679c0.27998 0.027 0.61998 0.033 1.02 0.018 0.39998-0.015 0.61998-0.213 0.65999-0.59399-0.0219-0.16859-0.17541-0.86073-0.46043-2.0764-0.28505-1.2157-0.57008-2.6154-0.8551-4.1991-0.28505-1.5837-0.43853-3.0118-0.46044-4.2844 0.11598-1.37 0.75998-2.482 1.932-3.336 1.172-0.85397 2.176-1.294 3.012-1.32 0.9582 0.08683 1.9431 0.99585 2.9546 2.7271s1.8684 3.7638 2.5706 6.0977 1.0684 4.4482 1.0987 6.343c0.044 0.362 0.32797 0.56199 0.85199 0.59999 0.52397 0.038 1.024 0.046 1.5 0.024h5.4239c0.49096 0.007 0.81696-0.031 0.97798-0.114 0.16097-0.083 0.23497-0.253 0.222-0.50999-0.10669-3.7754-0.85335-6.9925-2.24-9.6514-1.3867-2.6589-2.7733-4.7632-4.16-6.3128s-2.1333-2.5481-2.24-2.9955c0.0889-0.42131 0.71108-1.0346 1.8666-1.84 1.1555-0.8053 2.311-1.9626 3.4666-3.472 1.1555-1.5093 1.7777-3.5306 1.8666-6.0639 0.092-2.1589-0.65602-4.1649-2.244-6.0179-1.588-1.8529-4.568-2.8389-8.9399-2.958z"/>
<path d="m260.06-11.784c4.8039-0.117 8.2639-1.623 10.38-4.5179 2.1159-2.895 3.1519-6.4769 3.108-10.746-0.03-4.2059-0.7381-8.2899-2.1244-12.252-1.3864-3.9623-3.2714-7.2393-5.655-9.831-2.3837-2.5916-5.0865-3.9344-8.1083-4.0284-3.0219 0.09396-5.7247 1.4368-8.1083 4.0284-2.3837 2.5917-4.2687 5.8687-5.655 9.831-1.3864 3.9623-2.0945 8.0464-2.1244 12.252-0.044 4.269 0.99198 7.8509 3.108 10.746 2.116 2.895 5.5759 4.4009 10.38 4.5179zm-2.4-8.5439c-2.564 0.02701-4.552-0.56698-5.9639-1.782-1.412-1.215-2.128-3.2129-2.148-5.9939 0.13699-5.3609 1.087-9.5669 2.85-12.618 1.763-3.0509 3.5169-4.6049 5.2619-4.6619 1.745 0.05703 3.4989 1.611 5.2619 4.6619 1.763 3.051 2.7129 7.2569 2.85 12.618-0.02 2.781-0.73602 4.7789-2.148 5.9939s-3.4 1.809-5.9639 1.782z"/>
<path d="m299.96-12.504c0.33798 0.03 0.75397 0.03 1.248 0 0.49397-0.03 0.76596-0.27 0.81599-0.71999-0.0175-0.19289-0.19054-1.0498-0.51911-2.5706-0.32861-1.5209-0.70786-3.0284-1.1378-4.5226s-0.80564-2.2977-1.1271-2.4106c-0.39853 0.05038-0.96682 0.40297-1.7049 1.0578-0.73809 0.65482-1.6548 1.3096-2.7502 1.9644-1.0954 0.65481-2.3784 1.0074-3.8488 1.0578-1.385 0.07201-2.635-0.46799-3.75-1.62s-1.705-3.3479-1.77-6.5879c0.0687-4.455 0.54991-8.4674 1.4435-12.037 0.8936-3.5697 1.7872-6.4621 2.6808-8.6772 0.8936-2.215 1.3748-3.5181 1.4435-3.9093-0.017-0.41796-0.12701-0.68595-0.33-0.80399-0.20301-0.11796-0.39701-0.16996-0.58199-0.156h-7.6319c-0.35813 0.09879-0.76387 1.2873-1.2172 3.5655-0.45337 2.2783-0.89361 5.0537-1.3207 8.3264-0.42712 3.2727-0.78037 6.4502-1.0597 9.5324-0.27937 3.0822-0.42412 5.4767-0.43424 7.1834 0.03 4.7409 0.078 7.8589 0.144 9.3539s0.68999 2.153 1.872 1.974z"/>
<path d="m327.71-12.504c0.33798 0.03 0.75397 0.03 1.248 0 0.49397-0.03 0.76596-0.27 0.81599-0.71999-0.0175-0.19289-0.19054-1.0498-0.51911-2.5706-0.32861-1.5209-0.70786-3.0284-1.1378-4.5226s-0.80564-2.2977-1.1271-2.4106c-0.39853 0.05038-0.96682 0.40297-1.7049 1.0578-0.73809 0.65482-1.6548 1.3096-2.7502 1.9644-1.0954 0.65481-2.3784 1.0074-3.8488 1.0578-1.385 0.07201-2.635-0.46799-3.75-1.62s-1.705-3.3479-1.77-6.5879c0.0687-4.455 0.54991-8.4674 1.4435-12.037 0.8936-3.5697 1.7872-6.4621 2.6808-8.6772 0.8936-2.215 1.3748-3.5181 1.4435-3.9093-0.017-0.41796-0.12701-0.68595-0.33-0.80399-0.20301-0.11796-0.39701-0.16996-0.58199-0.156h-7.6319c-0.35813 0.09879-0.76387 1.2873-1.2172 3.5655-0.45337 2.2783-0.89361 5.0537-1.3207 8.3264-0.42712 3.2727-0.78037 6.4502-1.0597 9.5324-0.27937 3.0822-0.42412 5.4767-0.43424 7.1834 0.03 4.7409 0.078 7.8589 0.144 9.3539s0.68999 2.153 1.872 1.974z"/>
<path d="m342.98-12.504h0.95999c0.21899 0.008 0.39298-0.02 0.522-0.084 0.12898-0.064 0.19498-0.212 0.19799-0.444-0.10001-0.39599-0.5-2.424-1.2-6.0839s-1.1-8.5919-1.2-14.796c0.10599-4.7629 0.52999-8.8209 1.272-12.174 0.74197-3.3529 1.166-5.2149 1.272-5.5859-0.037-0.43096-0.26301-0.67295-0.67799-0.72599-0.41501-0.05296-0.797-0.06696-1.146-0.042h-5.1839c-0.21488-0.06621-0.50212 0.01229-0.86174 0.2355-0.35962 0.22329-0.72637 0.98878-1.1002 2.2965-0.37388 1.3078-0.68962 3.5552-0.94724 6.7424-0.25763 3.1872-0.39187 7.7117-0.40275 13.573 0.0104 5.8776 0.14963 10.021 0.41778 12.43 0.26814 2.4092 0.60295 3.8183 1.0044 4.2275 0.40147 0.40918 0.80739 0.55258 1.2178 0.43022z"/>
<path d="m377.47-12.504c0.41033 0.12237 0.81625-0.02104 1.2178-0.43022 0.40145-0.40918 0.73626-1.8183 1.0044-4.2275 0.26812-2.4091 0.40737-6.5525 0.41778-12.43-0.009-5.8617-0.13203-10.386-0.369-13.573-0.23703-3.1872-0.53403-5.4346-0.89099-6.7424-0.35703-1.3077-0.72002-2.0732-1.089-2.2965-0.36902-0.22321-0.69001-0.3017-0.96298-0.2355h-3.648c-0.48101-0.01996-0.92301-0.01596-1.326 0.012-0.40302 0.02804-0.61701 0.20004-0.64199 0.51599 0.10198 0.67403 0.50997 2.698 1.224 6.0719 0.71397 3.374 1.122 7.3659 1.224 11.976 0.014 0.40802 0.01 0.94801-0.012 1.62-0.022 0.67201-0.14603 1.044-0.372 1.116-0.21402-0.02098-0.38602-0.13498-0.51599-0.342-0.13002-0.20698-0.23002-0.38098-0.3-0.52199-2.9704-5.4808-5.4136-9.7083-7.3297-12.683-1.9161-2.9741-3.4349-5.0257-4.5564-6.1546-1.1215-1.1288-1.9754-1.6657-2.5617-1.6106h-3.792c-0.21488-0.06621-0.50213 0.01229-0.86174 0.2355-0.35962 0.22329-0.72637 0.98878-1.1002 2.2965-0.37387 1.3078-0.68962 3.5552-0.94724 6.7424s-0.39187 7.7117-0.40274 13.573c0.0104 5.8776 0.14963 10.021 0.41777 12.43 0.26815 2.4092 0.60296 3.8183 1.0044 4.2275 0.40147 0.40918 0.80739 0.55258 1.2178 0.43022h4.4639c0.24499 0.021 0.52298 0.027 0.83399 0.018 0.31098-0.009 0.48098-0.159 0.50999-0.44999-0.082-1.095-0.41-3.189-0.98399-6.2819-0.574-3.093-0.90199-7.9589-0.98398-14.598-0.0116-0.37864-0.0258-1.056-0.0427-2.032-0.0169-0.97596 0.0329-1.8986 0.14933-2.768 0.11644-0.8693 0.36888-1.3333 0.75733-1.392 0.55079 0.09158 1.2838 0.80446 2.1991 2.1386 0.91523 1.3342 1.7798 2.7404 2.5937 4.2186s1.3443 2.4791 1.5911 3.0026c2.3926 4.9991 3.9327 8.8141 4.6204 11.445 0.68767 2.6311 1.1434 4.4195 1.3671 5.3653 0.22368 0.94577 0.83582 1.3902 1.8364 1.3333z"/>
<path d="m401.68-11.784c3.1119 0.015 5.8879-0.71099 8.3279-2.178 2.4399-1.467 3.7279-3.7649 3.864-6.8939-0.008-0.61569-0.11499-1.9656-0.32178-4.0497-0.20684-2.0841-0.46699-4.0882-0.78043-6.0124-0.31351-1.9241-0.6341-2.954-0.96177-3.0897-0.29039 0.03291-1.139 0.2978-2.5457 0.79466-1.4068 0.4969-2.7816 1.0284-4.1244 1.5946-1.3428 0.56623-2.0634 0.96978-2.1617 1.2107 0.0468 0.38846 0.37449 0.75823 0.98309 1.1093 0.60857 0.35112 1.2172 0.84889 1.8258 1.4933 0.60856 0.64445 0.93626 1.6009 0.9831 2.8693-0.072 1.662-0.73202 2.85-1.98 3.564s-2.652 1.062-4.2119 1.044c-3.075-0.12099-5.157-1.259-6.2459-3.414-1.089-2.155-1.599-4.6009-1.53-7.3379-0.0142-2.2888 0.30754-4.5964 0.96532-6.9226 0.65776-2.3262 1.7368-4.2817 3.2373-5.8666 1.5004-1.5848 3.5075-2.4097 6.0213-2.4746 1.9496 0.05574 3.1756 0.44566 3.6782 1.1698 0.50249 0.72417 0.77567 1.4483 0.81955 2.1724 0.0438 0.72417 0.35256 1.1141 0.92621 1.1698 1.529-0.008 2.7309-0.38796 3.606-1.14 0.87496-0.75196 1.321-1.8279 1.338-3.228-0.0537-1.7179-0.66106-3.0873-1.8222-4.1084-1.1612-1.021-2.5544-1.754-4.1795-2.1991-1.6252-0.44499-3.1606-0.66247-4.6062-0.65244-3.8308 0.07411-7.0651 1.2219-9.703 3.4435s-4.6385 5.0726-6.0017 8.5528c-1.3632 3.4803-2.0483 7.1454-2.0551 10.995-0.002 5.4489 1.382 9.8509 4.1519 13.206 2.77 3.355 6.9379 5.0809 12.504 5.1779z"/>
</g>
</svg>
